<svg width="38" height="50" viewBox="0 0 38 50" fill="none" xmlns="http://www.w3.org/2000/svg">
<path d="M0.666992 31.7978C0.666992 24.3634 11.3232 8.47196 16.3857 1.34938C17.667 -0.449795 20.3337 -0.449795 21.6149 1.34938C26.6774 8.47196 37.3337 24.3634 37.3337 31.7978C37.3337 41.7611 29.1253 49.7642 19.0003 49.7642C8.87533 49.7642 0.666992 41.7611 0.666992 31.7978ZM10.667 31.7978C10.667 30.9955 9.91699 30.1728 9.00032 30.1728C8.07949 30.1728 7.33366 30.9955 7.33366 31.7978C7.33366 38.1759 12.5524 43.2642 19.0003 43.2642C19.917 43.2642 20.667 42.533 20.667 41.6392C20.667 40.7455 19.917 40.0142 19.0003 40.0142C14.3962 40.0142 10.667 36.3783 10.667 31.7978Z" fill="white"/>
</svg>
