<svg width="36" height="36" viewBox="0 0 36 36" fill="none" xmlns="http://www.w3.org/2000/svg">
<path d="M18 0C8.046 0 0 8.1 0 18C0 22.7739 1.89642 27.3523 5.27208 30.7279C6.94353 32.3994 8.92784 33.7252 11.1117 34.6298C13.2956 35.5344 15.6362 36 18 36C22.7739 36 27.3523 34.1036 30.7279 30.7279C34.1036 27.3523 36 22.7739 36 18C36 15.6362 35.5344 13.2956 34.6298 11.1117C33.7252 8.92784 32.3994 6.94353 30.7279 5.27208C29.0565 3.60062 27.0722 2.27475 24.8883 1.37017C22.7044 0.465584 20.3638 0 18 0ZM24.3 10.8C25.0161 10.8 25.7028 11.0845 26.2092 11.5908C26.7155 12.0972 27 12.7839 27 13.5C27 14.2161 26.7155 14.9028 26.2092 15.4092C25.7028 15.9155 25.0161 16.2 24.3 16.2C23.5839 16.2 22.8972 15.9155 22.3908 15.4092C21.8845 14.9028 21.6 14.2161 21.6 13.5C21.6 12.7839 21.8845 12.0972 22.3908 11.5908C22.8972 11.0845 23.5839 10.8 24.3 10.8ZM11.7 10.8C12.4161 10.8 13.1028 11.0845 13.6092 11.5908C14.1155 12.0972 14.4 12.7839 14.4 13.5C14.4 14.2161 14.1155 14.9028 13.6092 15.4092C13.1028 15.9155 12.4161 16.2 11.7 16.2C10.9839 16.2 10.2972 15.9155 9.79081 15.4092C9.28446 14.9028 9 14.2161 9 13.5C9 12.7839 9.28446 12.0972 9.79081 11.5908C10.2972 11.0845 10.9839 10.8 11.7 10.8ZM18 27.9C13.806 27.9 10.242 25.272 8.802 21.6H27.198C25.74 25.272 22.194 27.9 18 27.9Z" fill="#C5C8CF"/>
</svg>
