<svg width="18" height="20" viewBox="0 0 18 20" fill="none" xmlns="http://www.w3.org/2000/svg">
<path d="M10.2857 1.25V2C13.2188 2.5793 15.4286 5.10156 15.4286 8.125V8.85938C15.4286 10.6992 16.1237 12.4688 17.3772 13.8438L17.6746 14.168C18.0121 14.5391 18.0964 15.0625 17.8875 15.5117C17.6786 15.9609 17.2205 16.25 16.7143 16.25H1.28571C0.779456 16.25 0.320254 15.9609 0.112852 15.5117C-0.0945499 15.0625 -0.0115931 14.5391 0.324794 14.168L0.622759 13.8438C1.87794 12.4688 2.57142 10.6992 2.57142 8.85938V8.125C2.57142 5.10156 4.74508 2.5793 7.71428 2V1.25C7.71428 0.559766 8.28884 0 9 0C9.71116 0 10.2857 0.559766 10.2857 1.25ZM9 20C8.31696 20 7.66205 19.7383 7.17991 19.2695C6.69777 18.8008 6.42857 18.1289 6.42857 17.5H11.5714C11.5714 18.1289 11.3022 18.8008 10.8201 19.2695C10.3379 19.7383 9.64688 20 9 20Z" fill="black"/>
</svg>
