<svg width="32" height="26" viewBox="0 0 32 26" fill="none" xmlns="http://www.w3.org/2000/svg">
<path d="M14.2745 7.60978C14.3301 7.96156 14.3604 8.32369 14.3604 8.64443C14.3604 9.05828 14.3301 9.42041 14.2745 9.77218L15.3959 10.7965C15.7494 11.1224 15.8959 11.5932 15.709 12.0898C15.5929 12.3174 15.4666 12.633 15.3252 12.8916L15.1686 13.171C14.9716 13.4296 14.8504 13.678 14.6736 13.9211C14.3857 14.3143 13.8806 14.4436 13.426 14.2884L11.9965 13.8073C11.4561 14.2677 10.8398 14.635 10.168 14.8937L9.81952 16.3939C9.76396 16.875 9.40028 17.2578 8.92549 17.3199C8.58707 17.3613 8.2436 17.382 7.89507 17.382C7.54655 17.382 7.20308 17.3613 6.86466 17.3199C6.38986 17.2578 5.98073 16.875 5.92517 16.3939L5.57665 14.8937C4.95032 14.635 4.33409 14.2677 3.7911 13.8073L2.3657 14.2884C1.91161 14.4436 1.4055 14.3143 1.11759 13.9211C0.93878 13.678 0.772096 13.4245 0.618544 13.1658L0.466002 12.8916C0.325078 12.633 0.196883 12.364 0.0823252 12.0898C-0.104765 11.5932 0.0385832 11.1224 0.395288 10.7965L1.51561 9.77218C1.45904 9.42041 1.38428 9.05828 1.38428 8.64443C1.38428 8.32369 1.45904 7.96156 1.51561 7.60978L0.395288 6.58549C0.0385832 6.21302 -0.104765 5.74226 0.0823252 5.29219C0.196883 4.97145 0.325078 4.74848 0.465497 4.48827L0.619049 4.21668C0.772096 3.95543 0.93878 3.70298 1.11759 3.46036C1.4055 3.06978 1.91161 2.93993 2.3657 3.09306L3.7911 3.57417C4.33409 3.11686 4.95032 2.74852 5.57665 2.4909L5.92517 0.987047C5.98073 0.506974 6.38986 0.122605 6.86466 0.0636821C7.20308 0.021624 7.54655 0 7.89507 0C8.2436 0 8.58707 0.021624 8.92549 0.0636304C9.40028 0.122605 9.76396 0.506974 9.81952 0.987047L10.168 2.4909C10.8398 2.74852 11.4561 3.11686 11.9965 3.57417L13.426 3.09306C13.8806 2.93993 14.3857 3.06978 14.6736 3.46036C14.8504 3.70195 14.9716 3.95336 15.1686 4.21306L15.3252 4.49189C15.4666 4.75107 15.5929 5.01801 15.709 5.29219C15.8959 5.74226 15.7494 6.21302 15.3959 6.58549L14.2745 7.60978ZM7.89507 6.16129C6.55655 6.16129 5.47058 7.32009 5.47058 8.64443C5.47058 10.0619 6.55655 11.1276 7.89507 11.1276C9.2336 11.1276 10.3196 10.0619 10.3196 8.64443C10.3196 7.32009 9.2336 6.16129 7.89507 6.16129ZM24.3059 24.3296C23.9624 24.3865 23.6089 24.4175 23.2502 24.4175C22.8916 24.4175 22.538 24.3865 22.1946 24.3296L21.1945 25.478C20.8308 25.8402 20.3711 25.9902 19.9317 25.7988C19.664 25.6798 19.4014 25.5505 19.1488 25.4056L18.876 25.2452C18.6235 25.0435 18.381 24.9193 18.1436 24.7383C17.7598 24.4434 17.6335 23.9261 17.785 23.4605L18.2548 21.9965C17.8052 21.4429 17.4466 20.8118 17.194 20.1238L15.7292 19.7668C15.2595 19.7099 14.8857 19.3374 14.8251 18.8512C14.7847 18.5046 14.7645 18.1528 14.7645 17.7958C14.7645 17.4389 14.7847 17.0871 14.8251 16.7405C14.8857 16.2542 15.2595 15.8352 15.7292 15.7783L17.194 15.4213C17.4466 14.7798 17.8052 14.1487 18.2548 13.5952L17.785 12.1312C17.6335 11.6656 17.7598 11.1483 18.1436 10.8534C18.381 10.6723 18.6285 10.455 18.8811 10.3412L19.1488 10.186C19.4014 10.0412 19.6185 9.91186 19.9317 9.79288C20.3711 9.60147 20.8308 9.75149 21.1945 10.1136L22.1946 11.2621C22.538 11.2052 22.8916 11.1741 23.2502 11.1741C23.6089 11.1741 23.9624 11.2052 24.3059 11.2621L25.306 10.1136C25.6242 9.75149 26.0839 9.60147 26.5688 9.79288C26.8365 9.91186 27.0991 10.0412 27.3517 10.186L27.6194 10.3412C27.8719 10.455 28.1194 10.6723 28.3568 10.8534C28.7407 11.1483 28.867 11.6656 28.7155 12.1312L28.2457 13.5952C28.6953 14.1487 29.0539 14.7798 29.3064 15.4213L30.7712 15.7783C31.241 15.8352 31.6148 16.2542 31.6754 16.7405C31.7158 17.0871 31.736 17.4389 31.736 17.7958C31.736 18.1528 31.7158 18.5046 31.6754 18.8512C31.6148 19.3374 31.241 19.7099 30.7712 19.7668L29.3064 20.1238C29.0539 20.8118 28.6953 21.4429 28.2457 21.9965L28.7155 23.4605C28.867 23.9261 28.7407 24.4434 28.3568 24.7383C28.1194 24.9193 27.877 25.0435 27.6244 25.2452L27.3517 25.4056C27.0991 25.5505 26.791 25.6798 26.5688 25.7988C26.0839 25.9902 25.6242 25.8402 25.306 25.478L24.3059 24.3296ZM25.6747 17.7958C25.6747 16.4249 24.5888 15.3127 23.2502 15.3127C21.9117 15.3127 20.8257 16.4249 20.8257 17.7958C20.8257 19.1667 21.9117 20.279 23.2502 20.279C24.5888 20.279 25.6747 19.1667 25.6747 17.7958Z" fill="#C5C8CF"/>
</svg>
