<svg width="37" height="45" viewBox="0 0 37 45" fill="none" xmlns="http://www.w3.org/2000/svg">
<path d="M32.634 24.1566C32.634 21.1091 30.1606 18.6357 27.1131 18.6357C25.9427 18.6357 24.8607 18.9891 24.0215 19.6074V19.1878C24.0215 16.1403 21.5481 13.667 18.5007 13.667C15.4531 13.667 12.9798 16.1403 12.9798 19.1878V19.6074C12.1406 18.9891 11.0586 18.6357 9.88815 18.6357C6.84065 18.6357 4.36732 21.1091 4.36732 24.1566C4.36732 26.3428 5.67023 28.242 7.52523 29.1253C5.67023 30.0087 4.36732 31.8857 4.36732 34.0941C4.36732 37.1416 6.84065 39.6149 9.88815 39.6149C11.0586 39.6149 12.1406 39.2395 12.9798 38.6432V39.0628C12.9798 42.1103 15.4531 44.5837 18.5007 44.5837C21.5481 44.5837 24.0215 42.1103 24.0215 39.0628V38.6432C24.8607 39.2395 25.9427 39.6149 27.1131 39.6149C30.1606 39.6149 32.634 37.1416 32.634 34.0941C32.634 31.8857 31.3311 30.0087 29.4761 29.1253C31.3311 28.242 32.634 26.3428 32.634 24.1566ZM18.5007 34.6462C15.4531 34.6462 12.9798 32.1728 12.9798 29.1253C12.9798 26.0778 15.4531 23.6045 18.5007 23.6045C21.5481 23.6045 24.0215 26.0778 24.0215 29.1253C24.0215 32.1728 21.5481 34.6462 18.5007 34.6462ZM16.2923 9.25033C16.2923 8.03574 17.2861 7.04199 18.5007 7.04199C19.7152 7.04199 20.709 8.03574 20.709 9.25033C20.709 10.4649 19.7152 11.4587 18.5007 11.4587C17.2861 11.4587 16.2923 10.4649 16.2923 9.25033ZM7.45898 13.667C7.45898 12.4524 8.45273 11.4587 9.66732 11.4587C10.8819 11.4587 11.8757 12.4524 11.8757 13.667C11.8757 14.8816 10.8819 15.8753 9.66732 15.8753C8.45273 15.8753 7.45898 14.8816 7.45898 13.667ZM3.04232 9.25033C1.82773 9.25033 0.833984 8.25658 0.833984 7.04199C0.833984 5.82741 1.82773 4.83366 3.04232 4.83366C4.2569 4.83366 5.25065 5.82741 5.25065 7.04199C5.25065 8.25658 4.2569 9.25033 3.04232 9.25033ZM9.66732 2.62533C9.66732 1.41074 10.6611 0.416992 11.8757 0.416992C13.0902 0.416992 14.084 1.41074 14.084 2.62533C14.084 3.83991 13.0902 4.83366 11.8757 4.83366C10.6611 4.83366 9.66732 3.83991 9.66732 2.62533ZM22.9173 2.62533C22.9173 1.41074 23.9111 0.416992 25.1256 0.416992C26.3402 0.416992 27.334 1.41074 27.334 2.62533C27.334 3.83991 26.3402 4.83366 25.1256 4.83366C23.9111 4.83366 22.9173 3.83991 22.9173 2.62533ZM36.1673 7.04199C36.1673 8.25658 35.1736 9.25033 33.959 9.25033C32.7444 9.25033 31.7506 8.25658 31.7506 7.04199C31.7506 5.82741 32.7444 4.83366 33.959 4.83366C35.1736 4.83366 36.1673 5.82741 36.1673 7.04199ZM27.334 11.4587C28.5486 11.4587 29.5423 12.4524 29.5423 13.667C29.5423 14.8816 28.5486 15.8753 27.334 15.8753C26.1194 15.8753 25.1256 14.8816 25.1256 13.667C25.1256 12.4524 26.1194 11.4587 27.334 11.4587Z" fill="white"/>
</svg>
