<svg width="46" height="24" viewBox="0 0 46 24" fill="none" xmlns="http://www.w3.org/2000/svg">
<path d="M38.3711 4.02406L38.3115 0.148395L34.4358 0.208012L34.5846 9.88362L11.3577 10.2409L11.2089 0.565292L7.33324 0.624908L7.39286 4.50057L3.51719 4.56019L3.60641 10.3601L-0.269257 10.4198L-0.20964 14.2954L3.66603 14.2358L3.75524 20.0357L7.63091 19.9761L7.69052 23.8518L11.5662 23.7922L11.4174 14.1166L34.6442 13.7593L34.7931 23.4349L38.6687 23.3753L38.6091 19.4996L42.4848 19.44L42.3956 13.6401L46.2712 13.5804L46.2116 9.70477L42.336 9.76439L42.2467 3.96445L38.3711 4.02406Z" fill="white"/>
</svg>
