<svg width="19" height="25" viewBox="0 0 19 25" fill="none" xmlns="http://www.w3.org/2000/svg">
    <g id="Vector">
        <path d="M0 3.25077C0 1.45542 1.31562 0 2.93852 0H15.868C17.4909 0 18.8065 1.45542 18.8065 3.25077V21.4551C18.8065 23.2505 17.4909 24.7059 15.868 24.7059H2.93852C1.31562 24.7059 0 23.2505 0 21.4551V3.25077Z" fill="#C5C8CF" />
        <path d="M9.41402 11.8861C11.3344 11.8861 12.8912 10.2069 12.8912 8.13544C12.8912 6.06397 11.3344 4.38477 9.41402 4.38477C7.49384 4.38477 5.93684 6.06397 5.93684 8.13544C5.93684 10.2069 7.49433 11.8861 9.41402 11.8861ZM11.7104 12.7196H7.0959C4.96227 12.7196 3.23237 14.5853 3.23237 16.887C3.23237 17.3473 3.5784 17.7205 3.98334 17.7205H14.823C15.2496 17.7205 15.5739 17.3473 15.5739 16.887C15.5957 14.5845 13.8667 12.7196 11.7104 12.7196Z" fill="white" />
    </g>
</svg>