<svg width="44" height="44" viewBox="0 0 44 44" fill="none" xmlns="http://www.w3.org/2000/svg">
<path d="M35 17.8125L29 14.4375V7.5H31.8125V12.75L36.3125 15.375L35 17.8125ZM40.625 21.9375C41.5625 23.25 42.125 24.75 42.125 26.25V43.125H38.375V37.5H4.625V43.125H0.875V15H4.625V31.875H19.625V19.875C18.5 17.8125 17.75 15.5625 17.75 13.125C17.75 5.8125 23.5625 0 30.875 0C38.1875 0 44 5.8125 44 13.125C44 16.5 42.6875 19.5 40.625 21.9375ZM21.5 13.125C21.5 18.375 25.625 22.5 30.875 22.5C36.125 22.5 40.25 18.375 40.25 13.125C40.25 7.875 36.125 3.75 30.875 3.75C25.625 3.75 21.5 7.875 21.5 13.125ZM12.125 30C15.3125 30 17.75 27.5625 17.75 24.375C17.75 21.1875 15.3125 18.75 12.125 18.75C8.9375 18.75 6.5 21.1875 6.5 24.375C6.5 27.5625 8.9375 30 12.125 30Z" fill="white"/>
</svg>
