<svg width="24" height="25" viewBox="0 0 24 25" fill="none" xmlns="http://www.w3.org/2000/svg">
    <path d="M0.00685883 12.3288C0.00685883 13.1974 0.619076 13.8778 1.31292 13.8778H2.61898L2.59041 21.6032C2.59041 21.7383 2.59858 21.8637 2.61082 21.994V22.7757C2.61082 23.8421 3.3414 24.7059 4.2434 24.7059H4.89643C4.94132 24.7059 4.98622 24.6625 5.03112 24.7011C5.08826 24.6625 5.1454 24.7059 5.20254 24.7059H7.50855C8.41055 24.7059 9.14113 23.8421 9.14113 22.7757V18.5294C9.14113 17.6753 9.72478 16.9853 10.4472 16.9853H13.0593C13.7817 16.9853 14.3654 17.6753 14.3654 18.5294V22.7757C14.3654 23.8421 15.096 24.7059 15.998 24.7059H18.2795C18.3407 24.7059 18.4019 24.7011 18.4631 24.6962C18.5121 24.7011 18.5611 24.7059 18.6101 24.7059H19.2631C20.1647 24.7059 20.8957 23.8421 20.8957 22.7757V17.3713C20.8957 17.3279 20.8945 17.2796 20.892 17.2362V13.8778H22.1997C22.9356 13.8778 23.5078 13.1974 23.5078 12.3288C23.5078 11.8945 23.3852 11.5085 23.0993 11.1707L12.6348 0.386801C12.3491 0.0483502 12.0226 0 11.7369 0C11.4512 0 11.1247 0.0967004 10.8757 0.338451L0.45582 11.1707C0.129305 11.5085 -0.0380363 11.8945 0.00685883 12.3288Z" fill="#C5C8CF" />
</svg>