<svg width="360" height="259" viewBox="0 0 360 259" fill="none" xmlns="http://www.w3.org/2000/svg">
<path fill-rule="evenodd" clip-rule="evenodd" d="M394.966 141.231C347.098 124.97 278.73 124.15 188.889 183.774C67.1799 264.548 -51.1799 271.456 -149.085 243.988C-244.123 217.325 -317.305 159.213 -357.261 111.837C-380.672 84.0783 -377.147 42.5972 -349.389 19.1863C-321.63 -4.22465 -280.149 -0.700113 -256.738 27.0585C-230.993 57.5847 -179.381 98.9109 -113.564 117.376C-50.6146 135.037 27.9408 132.765 116.174 74.208C236.276 -5.49906 346.803 -14.0102 437.263 16.7186C524.02 46.1897 584.225 108.961 614.366 159.148C633.062 190.278 622.982 230.67 591.852 249.366C560.722 268.062 520.33 257.982 501.635 226.852C484.096 197.648 446.538 158.749 394.966 141.231Z" fill="#175EFB" fill-opacity="0.5"/>
</svg>
