<svg width="39" height="39" viewBox="0 0 39 39" fill="none" xmlns="http://www.w3.org/2000/svg">
<path d="M9.58333 0C3.83333 0 0 5.75 0 11.5C0 15.5442 1.91667 21.0833 3.83333 23C5.75 24.9167 7.66667 38.3333 11.5 38.3333C20.2017 38.3333 15.3333 24.9167 19.1667 24.9167C23 24.9167 18.1317 38.3333 26.8333 38.3333C30.6667 38.3333 32.5833 24.9167 34.5 23C36.4167 21.0833 38.3333 15.5442 38.3333 11.5C38.3333 5.75 34.5 0 28.75 0C23 0 23 1.91667 19.1667 1.91667C15.3333 1.91667 15.3333 0 9.58333 0Z" fill="white"/>
</svg>
