<svg width="18" height="18" viewBox="0 0 18 18" fill="none" xmlns="http://www.w3.org/2000/svg">
<path d="M17.362 12.7723L16.5005 14.2344C16.2626 14.638 15.7357 14.7762 15.3238 14.5431L10.6951 11.9218V17.1562C10.6951 17.6221 10.3097 18 9.83394 18H8.11192C7.63615 18 7.25072 17.6221 7.25072 17.1562V11.9215L2.65399 14.5441C2.24204 14.7772 1.715 14.639 1.4773 14.2355L0.615745 12.7733C0.377859 12.3697 0.518296 11.8543 0.93032 11.6213L5.55917 9L0.930535 6.38086C0.518224 6.14531 0.378038 5.63203 0.615745 5.22773L1.4773 3.76559C1.71518 3.36199 2.24204 3.22383 2.65399 3.45688L7.28263 6.07813L7.25144 0.84375C7.25144 0.37793 7.63686 0 8.11263 0H9.83502C10.3108 0 10.6962 0.37793 10.6962 0.84375L10.6962 6.07852L15.3249 3.45727C15.7368 3.22421 16.2639 3.36241 16.5016 3.76594L17.3628 5.22809C17.6007 5.63168 17.4602 6.14707 17.0482 6.38016L12.4501 9L17.0788 11.6202C17.4911 11.8547 17.6309 12.368 17.362 12.7723Z" fill="#313945"/>
</svg>
