<svg width="36" height="36" viewBox="0 0 36 36" fill="none" xmlns="http://www.w3.org/2000/svg">
<path d="M5.652 28.026C5.652 26.1 7.776 22.5 10.026 19.458C12.276 22.5 14.4 26.1 14.4 28.026C14.4 28.6004 14.2869 29.1692 14.067 29.6999C13.8472 30.2305 13.525 30.7127 13.1189 31.1189C12.7127 31.525 12.2305 31.8472 11.6999 32.067C11.1692 32.2869 10.6004 32.4 10.026 32.4C7.614 32.4 5.652 30.438 5.652 28.026ZM36 18C36 22.7739 34.1036 27.3523 30.7279 30.7279C27.3523 34.1036 22.7739 36 18 36C16.344 36 14.724 35.748 13.194 35.334C16.02 34.11 18 31.302 18 28.026C18 27.216 17.802 26.28 17.442 25.2C17.622 25.2 17.802 25.2 18 25.2C20.25 25.2 22.176 26.1 22.986 27.414L25.542 24.858C23.922 22.896 21.15 21.6 18 21.6C17.262 21.6 16.542 21.672 15.858 21.816C15.084 20.448 14.13 18.954 12.942 17.334L12.078 16.2C13.356 15.966 14.4 14.814 14.4 13.5C14.4 12.06 13.14 10.8 11.7 10.8C10.26 10.8 9 12.06 9 13.5C9 13.842 9.072 14.166 9.198 14.472L7.128 17.334C4.32 21.15 2.7 24.3 2.214 26.658C0.81 24.084 0 21.132 0 18C0 13.2261 1.89642 8.64773 5.27208 5.27208C8.64773 1.89642 13.2261 0 18 0C20.3638 0 22.7044 0.465584 24.8883 1.37017C27.0722 2.27475 29.0565 3.60062 30.7279 5.27208C32.3994 6.94353 33.7252 8.92784 34.6298 11.1117C35.5344 13.2956 36 15.6362 36 18ZM27 13.5C27 12.06 25.74 10.8 24.3 10.8C22.86 10.8 21.6 12.06 21.6 13.5C21.6 14.94 22.86 16.2 24.3 16.2C25.74 16.2 27 14.94 27 13.5Z" fill="#C5C8CF"/>
</svg>
