<svg width="309" height="272" viewBox="0 0 309 272" fill="none" xmlns="http://www.w3.org/2000/svg">
<g clip-path="url(#clip0_762_3532)">
<path d="M154.186 271.84C239.341 271.84 308.373 267.809 308.373 262.838C308.373 257.866 239.341 253.836 154.186 253.836C69.0315 253.836 0 257.866 0 262.838C0 267.809 69.0315 271.84 154.186 271.84Z" fill="#F5F5F5"/>
<path d="M62.6643 265.916H67.2607L76.5648 9.14526H71.9684L62.6643 265.916Z" fill="#BFDB72"/>
<path d="M139.944 265.916H135.348L92.644 9.14526H97.2404L139.944 265.916Z" fill="#BFDB72"/>
<path d="M39.0142 265.915H43.6106L87.8569 0H83.2605L39.0142 265.915Z" fill="#BFDB72"/>
<path d="M74.4493 16.0081L95.1411 16.0081V12.7238L74.4493 12.7238V16.0081Z" fill="#BFDB72"/>
<path d="M69.6142 173.089H121.391V169.51H69.6142V173.089Z" fill="#BFDB72"/>
<path d="M42.0401 44.1006L41.2471 44.1597L41.5194 47.8155L42.3124 47.7565L42.0401 44.1006Z" fill="#BFDB72"/>
<path d="M40.7603 26.8019L39.9673 26.8608L40.9385 39.9301L41.7315 39.8712L40.7603 26.8019Z" fill="#BFDB72"/>
<path d="M51.8173 149.534L53.3918 149.55L43.4515 14.8787L41.877 14.8628L51.8173 149.534Z" fill="#BFDB72"/>
<path d="M53.3915 149.55L146.823 150.457L136.89 15.7855L43.4512 14.8789L53.3915 149.55Z" fill="#BFDB72"/>
<path opacity="0.8" d="M53.3915 149.55L146.823 150.457L136.89 15.7855L43.4512 14.8789L53.3915 149.55Z" fill="white"/>
<path d="M56.0555 148.787L145.168 148.834L135.538 16.5487L45.145 16.501L56.0555 148.787Z" fill="white"/>
<path d="M92.6993 151.379H116.556C117.494 151.379 118.282 150.671 118.385 149.741L118.894 144.994H91.3395L90.8703 149.343C90.751 150.433 91.6019 151.379 92.6993 151.379Z" fill="#BFDB72"/>
<path d="M203.132 72.5723C202.385 72.3098 201.47 71.8407 200.564 71.3079C199.657 70.7591 198.719 70.1627 197.797 69.5106C195.944 68.2065 194.099 66.7671 192.278 65.288C188.643 62.3059 186.87 61.0415 183.355 57.8606L179.729 61.121C182.727 65.0812 184.031 66.8944 187.49 70.4888C189.216 72.286 191.021 74.0275 192.977 75.7055C193.956 76.5404 194.973 77.3754 196.079 78.1547C197.2 78.942 198.377 79.7054 199.848 80.3973C200.604 80.7313 201.431 81.0573 202.512 81.272C203.554 81.4708 205.089 81.5901 206.838 80.8347C207.689 80.445 208.524 79.8247 209.081 79.1408C209.391 78.7909 209.59 78.4649 209.812 78.107C209.987 77.7889 210.162 77.439 210.282 77.1289L210.449 76.6756L210.568 76.3019L210.711 75.8247L203.117 72.5723H203.132Z" fill="#FFB573"/>
<path d="M189.526 121.972C191.053 113.161 193.327 108.668 194.377 106.942C195.228 104.509 196.445 102.536 197.025 99.5543C196.445 88.5802 196.834 73.4073 198.043 70.9341C198.735 69.8367 203.61 67.1648 204.007 67.0693C204.731 60.0554 209.693 53.9084 209.693 53.9084C209.693 53.9084 211.673 53.7414 213.51 53.8765C208.596 60.4133 207.944 64.6359 207.554 66.3695C213.248 65.4868 218.973 65.6936 223.283 66.123C224.699 59.125 230.655 55.0853 230.655 55.0853C230.655 55.0853 231.808 55.1728 233.733 55.7851C228.627 61.288 227.689 64.6996 227.053 66.6002C229.2 66.9262 231.625 71.0216 231.625 71.0216C228.142 85.2084 225.582 97.5662 225.518 100.612C225.462 103.666 226.679 102.998 227.085 105.741C231.252 106.274 231.625 107.069 231.625 107.069C231.625 107.069 231.808 108.938 231.18 110.163C229.661 109.471 226.814 109.184 226.814 109.184C222.902 130.051 217.415 150.075 217.001 170.242L173.733 169.041C173.733 169.041 183.641 131.538 189.526 121.972Z" fill="white"/>
<path d="M186.044 59.3238L184.835 54.3695L177.972 58.0355C177.972 58.0355 180.095 63.6975 183.276 63.1727L185.217 61.6856C185.94 61.1289 186.266 60.2065 186.052 59.3158L186.044 59.3238Z" fill="#FFB573"/>
<path d="M180.803 49.1768L176.747 55.3079L177.972 58.0435L184.835 54.3696L180.803 49.1768Z" fill="#FFB573"/>
<path d="M230.95 38.5525C229.057 43.2284 226.362 51.8566 228.994 55.2443C225.916 57.6299 221.972 60.3576 216.358 60.1747C210.743 59.9918 212.509 56.1826 214.401 54.2423C219.896 53.3357 220.564 49.4073 220.405 45.6618L230.95 38.5525Z" fill="#FFB573"/>
<path d="M215.602 27.6181C215.689 27.6658 215.801 27.6658 215.896 27.6181C217.097 26.9819 218.075 27.4908 218.115 27.5147C218.266 27.5942 218.449 27.5385 218.528 27.3954C218.608 27.2443 218.552 27.0614 218.409 26.9819C218.353 26.9501 217.105 26.2821 215.602 27.0773C215.451 27.1568 215.395 27.3397 215.475 27.4908C215.506 27.5465 215.546 27.5863 215.602 27.6181Z" fill="#263238"/>
<path d="M215.928 30.4412C215.928 30.4412 214.147 33.1529 212.564 34.3139C213.296 35.3477 214.918 35.2841 214.918 35.2841L215.928 30.4412Z" fill="#ED893E"/>
<path d="M215.928 30.6401C215.824 31.149 215.458 31.5148 215.124 31.4433C214.79 31.3717 214.608 30.9025 214.711 30.3856C214.814 29.8767 215.18 29.5109 215.514 29.5824C215.848 29.654 216.031 30.1232 215.928 30.6401Z" fill="#263238"/>
<path d="M233.423 32.6121C231.721 38.8308 231.037 42.5524 227.18 45.121C221.375 48.9858 214.21 44.4689 214.019 37.8685C213.852 31.9282 216.667 22.7593 223.355 21.5426C229.948 20.3418 235.124 26.3934 233.423 32.6121Z" fill="#FFB573"/>
<path d="M219.951 33.6539C218.711 35.9918 218.894 38.9103 220.174 41.5187C221.454 44.127 222.448 45.7174 227.379 46.5524C232.309 47.3795 230.647 40.5962 232.945 37.9004C235.244 35.2046 243.419 26.7672 235.156 24.644C236.922 18.4174 232.452 16.3418 226.743 18.0595C221.033 19.7851 213.303 21.9163 214.345 18.4571C214.345 18.4571 207.546 27.0296 222.297 26.0118C217.439 30.1628 219.959 33.6539 219.959 33.6539H219.951Z" fill="#263238"/>
<path d="M222.735 18.8786C223.617 18.4571 226.568 17.0893 231.172 17.479C235.776 17.8686 239.403 20.2623 240.723 26.6877C242.043 33.1131 241.12 38.6876 238.003 38.123C236.977 36.8348 232.755 40.2781 232.755 40.2781C231.872 42.0355 225.844 37.5584 223.26 32.461C220.675 27.3636 218.981 19.475 222.727 18.8786H222.735Z" fill="#BFDB72"/>
<path opacity="0.3" d="M222.735 18.8786C223.617 18.4571 226.568 17.0893 231.172 17.479C235.776 17.8686 239.403 20.2623 240.723 26.6877C242.043 33.1131 241.12 38.6876 238.003 38.123C236.977 36.8348 232.755 40.2781 232.755 40.2781C231.872 42.0355 225.844 37.5584 223.26 32.461C220.675 27.3636 218.981 19.475 222.727 18.8786H222.735Z" fill="white"/>
<path d="M220.087 19.2522C217.964 19.6021 218.719 26.3218 221.105 31.8407C223.491 37.3595 227.53 42.1309 231.665 42.7989C232.413 42.2502 232.723 41.0732 232.771 40.278C231.626 39.4828 227.594 37.4072 223.888 29.9878C220.182 22.5683 222.743 18.8785 222.743 18.8785C222.663 18.3854 220.095 19.2522 220.095 19.2522H220.087Z" fill="#BFDB72"/>
<path d="M221.988 33.6221C221.566 35.0058 220.596 36.143 219.602 36.7792C218.107 37.7414 217.065 36.5645 217.24 34.9183C217.391 33.4313 218.354 31.149 219.976 30.8468C221.566 30.5526 222.473 32.0396 221.988 33.6221Z" fill="#FFB573"/>
<path d="M206.696 259.418H200.199L201.495 244.373H207.992L206.696 259.418Z" fill="#FFB573"/>
<path d="M199.331 258.663H207.252C207.514 258.663 207.745 258.846 207.808 259.108L209.089 264.882C209.224 265.478 208.755 266.051 208.135 266.035C205.59 265.987 203.729 265.844 200.516 265.844C198.544 265.844 194.202 266.051 191.475 266.051C188.747 266.051 188.389 263.355 189.51 263.108C194.512 262.011 196.675 260.5 198.274 259.061C198.56 258.798 198.942 258.663 199.331 258.663Z" fill="#263238"/>
<path opacity="0.2" d="M207.992 244.381H201.495L200.827 252.134H207.332L207.992 244.381Z" fill="black"/>
<path d="M181.065 45.6697C180.27 45.9242 180.413 46.3377 180.318 46.7194L180.119 47.8646L179.721 50.1548L178.99 54.7512C178.751 56.286 178.536 57.8208 178.33 59.3556C178.147 60.8983 177.932 62.4331 177.789 63.9838C177.765 64.2064 177.932 64.4053 178.155 64.4291C178.353 64.445 178.536 64.3178 178.584 64.1269C178.982 62.6239 179.316 61.1051 179.682 59.6021C180.023 58.0912 180.35 56.5723 180.66 55.0534L181.566 50.4968L181.988 48.2145L182.202 47.0693C182.242 46.6797 182.52 46.3377 181.86 45.8288C181.63 45.6459 181.328 45.6061 181.065 45.6856V45.6697Z" fill="#263238"/>
<path d="M181.303 46.0833C182.138 46.2503 183.665 45.7254 183.196 43.6101C182.727 41.4869 181.423 41.0018 183.085 39.4829C179.92 41.304 178.504 45.5266 181.295 46.0833H181.303Z" fill="#BFDB72"/>
<path d="M238.839 60.9062C229.765 84.5721 231.53 108.628 230.449 113.709C225.375 113.558 206.282 112.962 195.873 112.636C194.958 82.266 199.992 62.9738 203.109 57.1925C203.729 56.0474 204.859 55.2203 206.107 55.0295C207.022 54.8863 208.199 54.7273 209.519 54.5842C210.481 54.4808 211.523 54.3853 212.596 54.3217C213.193 54.282 213.789 54.2581 214.401 54.2422C218.33 54.1547 224.66 54.7353 229.002 55.2442C229.908 55.3555 230.831 55.4828 231.721 55.6259C232.548 55.7611 233.351 55.9122 234.115 56.0633C235.077 56.2541 235.976 56.4529 236.771 56.6358C238.64 57.0653 239.57 58.9897 238.839 60.9062Z" fill="#BFDB72"/>
<path d="M199.045 70.0116L197.956 73.9797C224.246 82.4727 213.51 53.8923 213.51 53.8923C213.51 53.8923 211.562 53.5981 209.693 53.9241C214.79 68.1189 209.963 75.0692 199.045 70.0195V70.0116Z" fill="white"/>
<path opacity="0.2" d="M213.28 63.8009C219.482 63.5862 222.472 74.7114 222.472 74.7114L221.661 75.3158L227.077 84.6756L220.707 88.3893L214.775 79.2681L213.256 80.3893C213.256 80.3893 209.486 77.7094 207.013 73.0653C203.602 66.6478 205.757 64.0713 213.28 63.8089V63.8009Z" fill="black"/>
<path d="M229.479 85.7014C229.415 85.1129 229.288 84.5642 229.129 84.0712C229.049 83.8167 228.962 83.5861 228.866 83.3635L228.636 82.8227C228.175 81.8128 227.737 80.7949 227.228 79.8088C226.226 77.8366 225.145 75.9042 223.944 74.0514C222.759 72.1905 221.471 70.4013 220.095 68.6756C219.395 67.8168 218.687 66.9739 217.94 66.1468C217.574 65.7333 217.192 65.3198 216.803 64.9063L216.198 64.2939L215.515 63.6339L208.715 70.7512L209.59 71.6975C209.908 72.0394 210.226 72.3814 210.544 72.7392C211.181 73.447 211.793 74.1866 212.405 74.9261C213.638 76.3973 214.815 77.9321 215.952 79.4828C217.081 81.0414 218.179 82.6239 219.173 84.27C219.666 85.0255 220.103 85.8048 220.564 86.5841C220.111 86.942 219.443 87.3237 218.695 87.6736C217.161 88.4131 215.332 88.9936 213.479 89.5344C209.741 90.5761 205.717 91.3714 201.797 92.0871L201.988 96.9618C206.314 97.2401 210.521 97.1447 214.894 96.5881C217.081 96.3097 219.276 95.8883 221.598 95.1407C222.759 94.759 223.952 94.258 225.224 93.4946C225.86 93.097 226.52 92.6199 227.18 91.9678C227.833 91.3157 228.509 90.4648 228.978 89.3276C229.455 88.2064 229.622 86.8545 229.487 85.6855L229.479 85.7014Z" fill="#FFB573"/>
<path d="M204.087 91.7374L199.013 92.2622L201.717 99.5624C201.717 99.5624 207.61 98.2264 207.53 95.0137L206.321 92.8904C205.868 92.0952 204.993 91.6499 204.087 91.7453V91.7374Z" fill="#FFB573"/>
<path d="M194.441 94.6238L195.467 101.383L201.717 99.5542L199.013 92.254L194.441 94.6238Z" fill="#FFB573"/>
<path d="M209.908 54.5367C216.087 55.1809 223.609 70.7832 223.609 70.7832L213.295 77.7016C213.295 77.7016 209.001 76.1827 204.373 69.6301C198.806 61.7494 201.852 53.6938 209.908 54.5367Z" fill="#BFDB72"/>
<path d="M208.134 113.017C208.134 113.017 201.057 164.031 199.196 183.053C197.16 203.88 198.043 249.669 198.043 249.669H209.94C209.94 249.669 213.279 203.872 217.025 183.57C221.287 160.453 233.741 125.813 230.448 113.717L208.134 113.017Z" fill="#263238"/>
<path opacity="0.2" d="M210.274 128.222C209.844 128.365 207.952 128.588 205.964 128.914C204.524 139.618 202.624 153.94 201.145 166.027C206.647 156.397 211.769 137.805 210.274 128.222Z" fill="black"/>
<path d="M197.034 250.687H211.045L211.618 246.496L196.986 245.828L197.034 250.687Z" fill="#BFDB72"/>
<path opacity="0.2" d="M197.034 250.687H211.045L211.618 246.496L196.986 245.828L197.034 250.687Z" fill="black"/>
<path d="M197.185 259.8C197.789 259.8 198.433 259.673 198.886 259.569C198.95 259.554 198.99 259.506 199.006 259.442C199.014 259.379 198.99 259.323 198.934 259.283C198.695 259.132 196.604 257.852 195.88 258.218C195.769 258.273 195.634 258.4 195.618 258.655C195.594 258.997 195.705 259.275 195.936 259.466C196.23 259.713 196.691 259.8 197.185 259.8ZM198.441 259.347C197.336 259.569 196.493 259.53 196.135 259.227C195.976 259.1 195.912 258.917 195.928 258.671C195.928 258.552 195.984 258.512 196.023 258.488C196.397 258.297 197.59 258.854 198.441 259.347Z" fill="#BFDB72"/>
<path d="M198.846 259.569C198.846 259.569 198.902 259.562 198.934 259.546C198.982 259.514 199.005 259.458 199.005 259.402C199.005 259.323 198.846 257.446 198.091 256.834C197.892 256.675 197.677 256.603 197.439 256.635C197.073 256.683 196.978 256.905 196.946 257.041C196.811 257.764 198.107 259.188 198.783 259.554C198.807 259.569 198.831 259.569 198.854 259.569H198.846ZM197.534 256.937C197.662 256.937 197.781 256.985 197.884 257.072C198.369 257.47 198.576 258.56 198.648 259.108C197.98 258.599 197.153 257.526 197.232 257.096C197.232 257.057 197.256 256.969 197.455 256.937C197.455 256.937 197.502 256.937 197.526 256.937H197.534Z" fill="#BFDB72"/>
<path d="M201.781 252.818L195.491 255.013L192.103 240.667L198.393 238.472L201.781 252.818Z" fill="#FFB573"/>
<path d="M194.743 255.419C194.703 255.355 193.932 253.772 192.922 253.423C192.62 253.319 192.318 253.335 192.031 253.47C191.713 253.629 191.634 253.82 191.634 253.979C191.634 254.011 191.634 254.043 191.634 254.075C191.785 254.806 193.725 255.586 194.584 255.641C194.624 255.641 194.664 255.641 194.687 255.609L194.719 255.578C194.751 255.53 194.759 255.474 194.735 255.419H194.743ZM191.944 254.019C191.944 254.019 191.928 253.916 192.031 253.836C192.063 253.804 192.111 253.78 192.167 253.749C192.286 253.693 192.405 253.661 192.524 253.661C192.628 253.661 192.723 253.685 192.827 253.717C193.487 253.947 194.067 254.846 194.322 255.299C193.407 255.124 192.031 254.456 191.944 254.019Z" fill="#BFDB72"/>
<path d="M194.703 255.609C194.751 255.57 194.767 255.514 194.759 255.458C194.743 255.395 194.695 255.347 194.624 255.339C194.298 255.299 191.387 254.965 190.799 255.649C190.687 255.784 190.655 255.943 190.703 256.118C190.791 256.413 190.966 256.619 191.236 256.723C192.127 257.065 193.781 256.182 194.687 255.625L194.703 255.609ZM191.077 255.808C191.474 255.482 192.993 255.498 194.131 255.601C192.866 256.325 191.84 256.635 191.347 256.444C191.172 256.373 191.061 256.246 191.005 256.047C190.981 255.967 190.989 255.912 191.037 255.856C191.053 255.84 191.061 255.824 191.085 255.816L191.077 255.808Z" fill="#BFDB72"/>
<path d="M194.99 254.544L201.646 252.087C201.892 251.991 202.171 252.087 202.322 252.309L205.526 257.279C205.86 257.796 205.63 258.488 205.049 258.687C202.632 259.53 199.117 260.675 196.095 261.788C192.564 263.092 192.588 263.251 188.453 264.778C185.956 265.701 184.326 263.434 185.288 262.814C189.67 260.007 190.528 259.617 193.701 255.554C194.043 255.108 194.465 254.735 194.99 254.536V254.544Z" fill="#263238"/>
<path opacity="0.2" d="M192.103 240.675L193.845 248.063L200.143 245.868L198.393 238.472L192.103 240.675Z" fill="black"/>
<path d="M193.415 178.528C198.926 164.699 218.6 113.343 218.6 113.343L195.872 112.636C195.872 112.636 180.795 155.069 174.83 174.616C168.62 194.942 190.926 246.44 190.926 246.44L202.361 242.878C202.361 242.878 187.912 192.365 193.423 178.536L193.415 178.528Z" fill="#263238"/>
<path d="M190.37 247.641L203.284 243.092L202.362 239.124L188.93 243.156L190.37 247.641Z" fill="#BFDB72"/>
<path opacity="0.2" d="M190.37 247.641L203.284 243.092L202.362 239.124L188.93 243.156L190.37 247.641Z" fill="black"/>
<path d="M195.435 105.153L195.069 108.699C211.141 109.129 218.6 111.021 218.6 111.021C218.6 111.021 218.894 109.662 218.958 107.777C213.129 105.526 201.996 105.025 195.435 105.153Z" fill="white"/>
<path d="M231.618 107.077L231.172 110.171C224.89 109.908 218.528 111.021 218.528 111.021C218.528 111.021 218.29 109.24 218.958 107.777C225.518 106.131 229.693 106.616 231.618 107.077Z" fill="white"/>
<path d="M233.724 55.7929L230.647 55.0931C231.18 67.2521 234.822 73.9718 234.822 73.9718C234.822 73.9718 235.856 72.3416 236.253 69.1925C233.208 62.6796 233.788 57.2641 233.717 55.785L233.724 55.7929Z" fill="white"/>
<path d="M216.858 111.021C216.58 111.944 218.655 111.514 218.957 111.212C219.26 110.91 222.623 107.3 220.81 107.101C218.997 106.902 218.87 107.3 218.87 107.3C218.87 107.3 217.94 106.656 216.683 106.632C215.427 106.616 217.423 109.129 216.858 111.021Z" fill="white"/>
<path d="M216.675 107.363C215.3 108.437 211.411 113.574 211.172 118.91C212.381 118.282 214.258 117.67 214.258 117.67C214.258 117.67 214.918 113.264 217.304 110.576L216.675 107.363Z" fill="white"/>
<path d="M220.23 107.753C221.47 109.463 224.937 116.556 225.057 122.433C223.959 121.28 222.257 119.88 222.257 119.88C222.257 119.88 221.216 114.194 219.084 110.353L220.238 107.761L220.23 107.753Z" fill="white"/>
<path d="M208.732 131.697H206.346L183.722 266.051H186.107L208.732 131.697Z" fill="#BFDB72"/>
<path d="M235.944 131.697H233.558L210.934 266.051H213.32L235.944 131.697Z" fill="#BFDB72"/>
<path opacity="0.2" d="M235.944 131.697H233.558L210.934 266.051H213.32L235.944 131.697Z" fill="black"/>
<path d="M239.037 131.697H241.423L264.039 266.051H261.653L239.037 131.697Z" fill="#BFDB72"/>
<path d="M211.817 131.697H214.203L236.827 266.051H234.441L211.817 131.697Z" fill="#BFDB72"/>
<path d="M208.692 125.813H239.069C240.365 125.813 241.423 126.862 241.423 128.166V131.697H206.346V128.166C206.346 126.87 207.395 125.813 208.7 125.813H208.692Z" fill="#BFDB72"/>
</g>
<defs>
<clipPath id="clip0_762_3532">
<rect width="308.373" height="271.84" fill="white"/>
</clipPath>
</defs>
</svg>
