<svg width="297" height="262" viewBox="0 0 297 262" fill="none" xmlns="http://www.w3.org/2000/svg">
<g clip-path="url(#clip0_618_2967)">
<path d="M148.5 262C230.514 262 297 258.116 297 253.324C297 248.532 230.514 244.648 148.5 244.648C66.4857 244.648 0 248.532 0 253.324C0 258.116 66.4857 262 148.5 262Z" fill="#F5F5F5"/>
<path d="M56.0176 256.29H60.4445L69.4055 8.81409H64.9786L56.0176 256.29Z" fill="#8DCFCB"/>
<path d="M130.448 256.29H126.021L84.8921 8.81409H89.319L130.448 256.29Z" fill="#8DCFCB"/>
<path d="M33.2397 256.29H37.6666L80.2812 0H75.8543L33.2397 256.29Z" fill="#8DCFCB"/>
<path d="M67.3682 15.4285L87.2969 15.4285V12.2631L67.3682 12.2631V15.4285Z" fill="#8DCFCB"/>
<path d="M62.7037 166.823H112.571V163.374H62.7037V166.823Z" fill="#8DCFCB"/>
<path d="M36.1588 42.5047L35.395 42.5616L35.6573 46.0851L36.4211 46.0282L36.1588 42.5047Z" fill="#8DCFCB"/>
<path d="M34.9186 25.8311L34.1548 25.8879L35.0902 38.4841L35.854 38.4273L34.9186 25.8311Z" fill="#8DCFCB"/>
<path d="M45.5708 144.121L47.0873 144.137L37.5135 14.3401L35.9971 14.3248L45.5708 144.121Z" fill="#8DCFCB"/>
<path d="M47.0874 144.137L137.073 145.011L127.499 15.2138L37.5137 14.3401L47.0874 144.137Z" fill="#8DCFCB"/>
<path opacity="0.8" d="M47.0874 144.137L137.073 145.011L127.499 15.2138L37.5137 14.3401L47.0874 144.137Z" fill="white"/>
<path d="M49.6531 143.401L135.48 143.447L126.197 15.9496L39.145 15.9036L49.6531 143.401Z" fill="white"/>
<path d="M84.9457 145.9H107.923C108.826 145.9 109.585 145.218 109.684 144.321L110.174 139.745H83.636L83.1841 143.938C83.0692 144.988 83.8887 145.9 84.9457 145.9Z" fill="#8DCFCB"/>
<path d="M191.352 69.3782C190.632 69.1253 189.751 68.6731 188.878 68.1595C188.005 67.6307 187.101 67.0559 186.213 66.4274C184.428 65.1704 182.651 63.7832 180.897 62.3576C177.397 59.4834 175.689 58.2648 172.304 55.199L168.812 58.3414C171.699 62.1583 172.955 63.9058 176.287 67.3701C177.949 69.1023 179.687 70.7808 181.571 72.398C182.513 73.2027 183.494 74.0075 184.558 74.7586C185.638 75.5174 186.772 76.2532 188.189 76.92C188.916 77.2419 189.713 77.5561 190.755 77.763C191.758 77.9547 193.236 78.0696 194.921 77.3415C195.741 76.9659 196.545 76.3681 197.081 75.709C197.38 75.3717 197.571 75.0575 197.785 74.7126C197.954 74.406 198.122 74.0688 198.237 73.7699L198.398 73.333L198.513 72.9728L198.651 72.5129L191.337 69.3782H191.352Z" fill="#FFB573"/>
<path d="M178.247 116.997C179.718 108.505 181.908 104.175 182.919 102.511C183.739 100.166 184.911 98.2653 185.47 95.3912C184.911 84.8143 185.286 70.1906 186.45 67.807C187.116 66.7493 191.811 64.174 192.194 64.0821C192.891 57.3221 197.671 51.3975 197.671 51.3975C197.671 51.3975 199.578 51.2365 201.347 51.3668C196.614 57.667 195.986 61.7368 195.61 63.4076C201.094 62.5569 206.609 62.7561 210.76 63.17C212.123 56.4253 217.86 52.5318 217.86 52.5318C217.86 52.5318 218.97 52.6161 220.824 53.2063C215.907 58.51 215.003 61.7981 214.39 63.6299C216.458 63.9441 218.794 67.8913 218.794 67.8913C215.439 81.5646 212.973 93.4751 212.912 96.4105C212.858 99.3537 214.03 98.7099 214.421 101.354C218.434 101.868 218.794 102.634 218.794 102.634C218.794 102.634 218.97 104.435 218.365 105.615C216.902 104.949 214.16 104.673 214.16 104.673C210.392 124.784 205.107 144.083 204.709 163.52L163.037 162.363C163.037 162.363 172.58 126.217 178.247 116.997Z" fill="white"/>
<path d="M174.893 56.617L173.728 51.842L167.119 55.3753C167.119 55.3753 169.164 60.8324 172.227 60.3265L174.096 58.8933C174.793 58.3568 175.107 57.4677 174.9 56.6093L174.893 56.617Z" fill="#FFB573"/>
<path d="M169.846 46.8372L165.939 52.7464L167.119 55.3753L173.729 51.842L169.846 46.8372Z" fill="#FFB573"/>
<path d="M218.143 36.5975C216.32 41.1042 213.724 49.4201 216.259 52.6851C213.295 54.9844 209.496 57.6133 204.089 57.4371C198.682 57.2608 200.382 53.5895 202.205 51.7194C207.497 50.8457 208.14 47.0594 207.987 43.4495L218.143 36.5975Z" fill="#FFB573"/>
<path d="M203.361 26.059C203.445 26.105 203.552 26.105 203.644 26.059C204.801 25.4458 205.743 25.9364 205.781 25.9593C205.927 26.036 206.103 25.9823 206.18 25.8444C206.256 25.6988 206.202 25.5225 206.065 25.4458C206.011 25.4152 204.809 24.7714 203.361 25.5378C203.215 25.6145 203.162 25.7907 203.238 25.9364C203.269 25.99 203.307 26.0283 203.361 26.059Z" fill="#263238"/>
<path d="M203.683 28.7722C203.683 28.7722 201.967 31.3857 200.443 32.5047C201.147 33.5011 202.71 33.4398 202.71 33.4398L203.683 28.7722Z" fill="#ED893E"/>
<path d="M203.683 28.9638C203.583 29.4543 203.231 29.8069 202.909 29.7379C202.588 29.6689 202.412 29.2167 202.511 28.7185C202.611 28.228 202.963 27.8754 203.285 27.9444C203.606 28.0134 203.783 28.4656 203.683 28.9638Z" fill="#263238"/>
<path d="M220.525 30.8722C218.886 36.8658 218.227 40.4527 214.512 42.9283C208.921 46.6532 202.021 42.2999 201.837 35.9384C201.676 30.2131 204.387 21.376 210.828 20.2034C217.178 19.0461 222.164 24.8787 220.525 30.8722Z" fill="#FFB573"/>
<path d="M207.558 31.8686C206.363 34.1219 206.539 36.9348 207.773 39.4487C209.006 41.9626 209.963 43.4955 214.712 44.3003C219.46 45.0974 217.859 38.5596 220.073 35.9614C222.286 33.3632 230.16 25.2312 222.202 23.1848C223.902 17.1836 219.598 15.1832 214.099 16.8387C208.6 18.5019 201.155 20.5559 202.158 17.2219C202.158 17.2219 195.61 25.4842 209.817 24.5031C205.138 28.5039 207.566 31.8686 207.566 31.8686H207.558Z" fill="#263238"/>
<path d="M210.239 17.6281C211.089 17.2219 213.931 15.9036 218.365 16.2792C222.8 16.6548 226.292 18.9617 227.564 25.1546C228.835 31.3474 227.947 36.7202 224.944 36.176C223.956 34.9344 219.889 38.253 219.889 38.253C219.039 39.9469 213.234 35.6318 210.745 30.7189C208.255 25.8061 206.624 18.203 210.231 17.6281H210.239Z" fill="#8DCFCB"/>
<path opacity="0.3" d="M210.239 17.6281C211.089 17.2219 213.931 15.9036 218.365 16.2792C222.8 16.6548 226.292 18.9617 227.564 25.1546C228.835 31.3474 227.947 36.7202 224.944 36.176C223.956 34.9344 219.889 38.253 219.889 38.253C219.039 39.9469 213.234 35.6318 210.745 30.7189C208.255 25.8061 206.624 18.203 210.231 17.6281H210.239Z" fill="white"/>
<path d="M207.681 17.9883C205.636 18.3256 206.363 24.802 208.661 30.1211C210.959 35.4402 214.849 40.0388 218.832 40.6826C219.552 40.1538 219.851 39.0195 219.897 38.253C218.794 37.4866 214.911 35.4862 211.342 28.3353C207.773 21.1844 210.239 17.6281 210.239 17.6281C210.162 17.1529 207.688 17.9883 207.688 17.9883H207.681Z" fill="#8DCFCB"/>
<path d="M209.511 31.8456C209.105 33.1792 208.171 34.2752 207.214 34.8884C205.774 35.8158 204.77 34.6815 204.939 33.0949C205.084 31.6617 206.011 29.462 207.574 29.1707C209.105 28.8872 209.978 30.3204 209.511 31.8456Z" fill="#FFB573"/>
<path d="M194.791 249.461H188.533L189.774 234.968H196.031L194.791 249.461Z" fill="#FFB573"/>
<path d="M187.691 248.741H195.319C195.572 248.741 195.794 248.917 195.855 249.17L197.088 254.734C197.219 255.309 196.767 255.861 196.169 255.845C193.718 255.8 191.926 255.662 188.832 255.662C186.933 255.662 182.751 255.861 180.124 255.861C177.497 255.861 177.152 253.263 178.232 253.025C183.05 251.967 185.133 250.511 186.672 249.124C186.948 248.871 187.316 248.741 187.691 248.741Z" fill="#263238"/>
<path opacity="0.2" d="M196.032 234.968H189.774L189.139 242.44H195.396L196.032 234.968Z" fill="black"/>
<path d="M170.106 43.4572C169.34 43.7024 169.478 44.101 169.386 44.4689L169.195 45.5726L168.812 47.7799L168.107 52.2099C167.877 53.6892 167.67 55.1684 167.471 56.6476C167.295 58.1345 167.088 59.6137 166.95 61.1083C166.927 61.3229 167.088 61.5145 167.303 61.5375C167.494 61.5528 167.67 61.4302 167.716 61.2463C168.099 59.7977 168.421 58.3338 168.773 56.8852C169.103 55.429 169.417 53.9651 169.715 52.5012L170.588 48.1095L170.994 45.9098L171.201 44.8061C171.239 44.4306 171.508 44.101 170.872 43.6105C170.65 43.4342 170.359 43.3959 170.106 43.4725V43.4572Z" fill="#263238"/>
<path d="M170.328 43.8481C171.132 44.009 172.603 43.5032 172.151 41.4645C171.699 39.4181 170.443 38.9505 172.044 37.4866C168.995 39.2418 167.632 43.3116 170.32 43.8481H170.328Z" fill="#8DCFCB"/>
<path d="M225.741 58.1422C217.002 80.9515 218.702 104.136 217.66 109.034C212.774 108.888 194.385 108.313 184.359 107.999C183.478 78.7288 188.327 60.1349 191.329 54.5629C191.926 53.4592 193.014 52.6621 194.216 52.4782C195.097 52.3402 196.231 52.187 197.502 52.049C198.429 51.9494 199.432 51.8574 200.466 51.7961C201.04 51.7578 201.615 51.7348 202.205 51.7194C205.988 51.6351 212.085 52.1946 216.267 52.6851C217.14 52.7924 218.028 52.9151 218.886 53.053C219.682 53.1833 220.456 53.3289 221.191 53.4746C222.118 53.6585 222.983 53.8501 223.749 54.0264C225.549 54.4403 226.445 56.2951 225.741 58.1422Z" fill="#8DCFCB"/>
<path d="M187.415 66.9103L186.366 70.7348C211.686 78.9204 201.347 51.3745 201.347 51.3745C201.347 51.3745 199.47 51.0909 197.67 51.4052C202.58 65.0861 197.931 71.7848 187.415 66.9179V66.9103Z" fill="white"/>
<path opacity="0.2" d="M201.125 60.932C207.099 60.7251 209.979 71.4476 209.979 71.4476L209.197 72.0301L214.413 81.0511L208.278 84.6304L202.565 75.8393L201.102 76.92C201.102 76.92 197.471 74.3371 195.09 69.8611C191.804 63.6759 193.879 61.1926 201.125 60.9397V60.932Z" fill="black"/>
<path d="M216.726 82.0321C216.665 81.465 216.542 80.9361 216.389 80.4609C216.312 80.2157 216.228 79.9934 216.136 79.7788L215.914 79.2576C215.47 78.2843 215.049 77.3032 214.558 76.3528C213.593 74.4521 212.552 72.5896 211.395 70.8038C210.254 69.0103 209.013 67.2858 207.688 65.6227C207.014 64.7949 206.333 63.9825 205.613 63.1854C205.26 62.7868 204.893 62.3883 204.517 61.9897L203.935 61.3996L203.277 60.7634L196.728 67.6231L197.571 68.5351C197.877 68.8647 198.183 69.1943 198.49 69.5392C199.103 70.2213 199.692 70.9341 200.282 71.6469C201.469 73.0648 202.603 74.544 203.698 76.0386C204.785 77.5408 205.842 79.066 206.8 80.6526C207.275 81.3807 207.696 82.1318 208.14 82.8829C207.704 83.2278 207.06 83.5957 206.34 83.9329C204.862 84.6457 203.101 85.2052 201.316 85.7264C197.716 86.7304 193.841 87.4969 190.065 88.1867L190.249 92.8849C194.415 93.1532 198.467 93.0612 202.679 92.5247C204.786 92.2565 206.899 91.8503 209.136 91.1298C210.254 90.7619 211.403 90.279 212.628 89.5433C213.241 89.16 213.877 88.7002 214.512 88.0717C215.14 87.4432 215.791 86.6231 216.243 85.5271C216.703 84.4464 216.864 83.1435 216.734 82.0168L216.726 82.0321Z" fill="#FFB573"/>
<path d="M192.271 87.8494L187.385 88.3553L189.989 95.3912C189.989 95.3912 195.664 94.1036 195.588 91.0072L194.423 88.9608C193.987 88.1943 193.144 87.7651 192.271 87.8571V87.8494Z" fill="#FFB573"/>
<path d="M182.98 90.6316L183.976 97.1463L189.988 95.3911L187.392 88.3552L182.98 90.6316Z" fill="#FFB573"/>
<path d="M197.877 52.003C203.828 52.6238 211.074 67.6613 211.074 67.6613L201.14 74.3294C201.14 74.3294 197.004 72.8655 192.547 66.55C187.185 58.9546 190.119 51.1905 197.877 52.003Z" fill="#8DCFCB"/>
<path d="M196.177 108.367C196.177 108.367 189.361 157.534 187.568 175.867C185.608 195.94 186.458 240.072 186.458 240.072H197.916C197.916 240.072 201.132 195.933 204.74 176.366C208.845 154.085 220.839 120.699 217.668 109.041L196.177 108.367Z" fill="#263238"/>
<path opacity="0.2" d="M198.237 123.014C197.824 123.152 196.001 123.366 194.086 123.68C192.7 133.997 190.869 147.8 189.445 159.45C194.745 150.169 199.677 132.249 198.237 123.014Z" fill="black"/>
<path d="M185.485 241.045H198.973L199.524 237.014L185.432 236.363L185.485 241.045Z" fill="#8DCFCB"/>
<path opacity="0.2" d="M185.485 241.045H198.973L199.524 237.014L185.432 236.363L185.485 241.045Z" fill="black"/>
<path d="M185.623 249.829C186.205 249.829 186.826 249.706 187.262 249.607C187.323 249.591 187.362 249.545 187.377 249.484C187.385 249.423 187.362 249.369 187.308 249.331C187.078 249.185 185.064 247.951 184.367 248.304C184.26 248.357 184.13 248.48 184.114 248.725C184.091 249.055 184.199 249.323 184.421 249.507C184.704 249.745 185.148 249.829 185.623 249.829ZM186.833 249.392C185.769 249.607 184.957 249.568 184.612 249.277C184.459 249.154 184.398 248.978 184.413 248.741C184.413 248.626 184.467 248.587 184.505 248.564C184.865 248.38 186.014 248.917 186.833 249.392Z" fill="#8DCFCB"/>
<path d="M187.224 249.614C187.224 249.614 187.277 249.607 187.308 249.591C187.354 249.561 187.377 249.507 187.377 249.453C187.377 249.377 187.224 247.568 186.496 246.978C186.305 246.825 186.098 246.756 185.868 246.786C185.516 246.832 185.424 247.047 185.393 247.177C185.263 247.875 186.511 249.246 187.162 249.599C187.185 249.614 187.208 249.614 187.231 249.614H187.224ZM185.96 247.077C186.083 247.077 186.197 247.123 186.297 247.208C186.764 247.591 186.963 248.641 187.032 249.17C186.389 248.679 185.592 247.645 185.669 247.231C185.669 247.192 185.692 247.108 185.883 247.077C185.883 247.077 185.929 247.077 185.952 247.077H185.96Z" fill="#8DCFCB"/>
<path d="M190.058 243.1L183.992 245.215L180.729 231.396L186.787 229.273L190.058 243.1Z" fill="#FFB573"/>
<path d="M183.279 245.606C183.241 245.545 182.498 244.019 181.525 243.682C181.234 243.582 180.943 243.598 180.668 243.728C180.361 243.881 180.285 244.065 180.285 244.219C180.285 244.249 180.285 244.28 180.285 244.311C180.43 245.016 182.299 245.767 183.126 245.82C183.164 245.82 183.203 245.82 183.226 245.79L183.256 245.759C183.287 245.713 183.295 245.659 183.272 245.606H183.279ZM180.583 244.257C180.583 244.257 180.568 244.157 180.668 244.081C180.698 244.05 180.744 244.027 180.798 243.996C180.913 243.943 181.028 243.912 181.142 243.912C181.242 243.912 181.334 243.935 181.434 243.966C182.069 244.188 182.628 245.054 182.873 245.491C181.993 245.322 180.668 244.678 180.583 244.257Z" fill="#8DCFCB"/>
<path d="M183.233 245.79C183.279 245.751 183.295 245.698 183.287 245.644C183.272 245.583 183.226 245.537 183.157 245.529C182.843 245.491 180.04 245.169 179.473 245.828C179.366 245.958 179.335 246.112 179.381 246.28C179.465 246.564 179.634 246.763 179.894 246.863C180.752 247.192 182.345 246.342 183.218 245.805L183.233 245.79ZM179.741 245.981C180.124 245.667 181.587 245.682 182.682 245.782C181.464 246.48 180.476 246.778 180.001 246.595C179.833 246.526 179.726 246.403 179.672 246.211C179.649 246.135 179.657 246.081 179.703 246.027C179.718 246.012 179.726 245.997 179.749 245.989L179.741 245.981Z" fill="#8DCFCB"/>
<path d="M183.509 244.763L189.92 242.394C190.157 242.302 190.425 242.394 190.571 242.609L193.657 247.399C193.979 247.898 193.757 248.564 193.198 248.756C190.869 249.568 187.484 250.672 184.574 251.745C181.173 253.002 181.196 253.155 177.214 254.627C174.809 255.516 173.238 253.332 174.165 252.734C178.385 250.028 179.213 249.653 182.268 245.736C182.598 245.307 183.004 244.947 183.509 244.755V244.763Z" fill="#263238"/>
<path opacity="0.2" d="M180.729 231.396L182.414 238.524L188.472 236.409L186.795 229.281L180.729 231.396Z" fill="black"/>
<path d="M182 171.506C187.308 158.178 206.256 108.681 206.256 108.681L184.367 107.999C184.367 107.999 169.845 148.896 164.101 167.736C158.119 187.326 179.603 236.96 179.603 236.96L190.617 233.527C190.617 233.527 176.7 184.842 182.008 171.514L182 171.506Z" fill="#263238"/>
<path d="M179.059 238.118L191.497 233.734L190.609 229.901L177.681 233.787L179.059 238.118Z" fill="#8DCFCB"/>
<path opacity="0.2" d="M179.059 238.118L191.497 233.734L190.609 229.901L177.681 233.787L179.059 238.118Z" fill="black"/>
<path d="M183.938 100.787L183.585 104.205C199.064 104.619 206.248 106.443 206.248 106.443C206.248 106.443 206.532 105.133 206.593 103.316C200.979 101.147 190.256 100.664 183.938 100.787Z" fill="white"/>
<path d="M218.786 102.642L218.357 105.623C212.307 105.37 206.18 106.443 206.18 106.443C206.18 106.443 205.95 104.726 206.593 103.316C212.912 101.73 216.933 102.197 218.786 102.642Z" fill="white"/>
<path d="M220.816 53.2063L217.852 52.5319C218.365 64.2507 221.873 70.7272 221.873 70.7272C221.873 70.7272 222.869 69.156 223.252 66.1208C220.318 59.8437 220.877 54.6242 220.808 53.1987L220.816 53.2063Z" fill="white"/>
<path d="M204.579 106.443C204.311 107.332 206.31 106.918 206.601 106.627C206.892 106.336 210.132 102.856 208.386 102.665C206.639 102.473 206.517 102.856 206.517 102.856C206.517 102.856 205.621 102.235 204.411 102.212C203.201 102.197 205.123 104.619 204.579 106.443Z" fill="white"/>
<path d="M204.395 102.91C203.07 103.945 199.325 108.896 199.095 114.039C200.259 113.433 202.067 112.843 202.067 112.843C202.067 112.843 202.703 108.597 205 106.006L204.395 102.91Z" fill="white"/>
<path d="M207.827 103.286C209.021 104.933 212.361 111.77 212.476 117.434C211.419 116.323 209.78 114.974 209.78 114.974C209.78 114.974 208.776 109.494 206.724 105.792L207.834 103.293L207.827 103.286Z" fill="white"/>
<path d="M196.744 126.363H194.446L172.664 255.853H174.962L196.744 126.363Z" fill="#8DCFCB"/>
<path d="M222.953 126.363H220.655L198.873 255.853H201.171L222.953 126.363Z" fill="#8DCFCB"/>
<path opacity="0.2" d="M222.953 126.363H220.655L198.873 255.853H201.171L222.953 126.363Z" fill="black"/>
<path d="M225.932 126.363H228.23L250.02 255.853H247.722L225.932 126.363Z" fill="#8DCFCB"/>
<path d="M199.723 126.363H202.021L223.803 255.853H221.505L199.723 126.363Z" fill="#8DCFCB"/>
<path d="M196.713 120.691H225.971C227.219 120.691 228.238 121.703 228.238 122.96V126.363H194.454V122.96C194.454 121.711 195.465 120.691 196.721 120.691H196.713Z" fill="#8DCFCB"/>
</g>
<defs>
<clipPath id="clip0_618_2967">
<rect width="297" height="262" fill="white"/>
</clipPath>
</defs>
</svg>
