<svg width="24" height="25" viewBox="0 0 24 25" fill="none" xmlns="http://www.w3.org/2000/svg">
<path d="M23.3173 17.5306L22.126 19.5374C21.797 20.0914 21.0684 20.281 20.4988 19.9611L14.0982 16.3633V23.5478C14.0982 24.1872 13.5652 24.7059 12.9073 24.7059H10.526C9.86809 24.7059 9.33511 24.1872 9.33511 23.5478V16.3628L2.97861 19.9625C2.40895 20.2824 1.68014 20.0927 1.35143 19.5389L0.160055 17.532C-0.1689 16.9781 0.0253 16.2707 0.59506 15.9507L6.99598 12.3529L0.595357 8.75804C0.0252008 8.43474 -0.168652 7.73024 0.160055 7.17532L1.35143 5.16845C1.68039 4.6145 2.40895 4.42486 2.97861 4.74474L9.37924 8.34253L9.3361 1.15809C9.3361 0.518727 9.86908 0 10.527 0H12.9088C13.5667 0 14.0996 0.518727 14.0996 1.15809L14.0997 8.34306L20.5003 4.74527C21.0699 4.42539 21.7988 4.61508 22.1275 5.16893L23.3183 7.1758C23.6474 7.72976 23.4531 8.43715 22.8833 8.75708L16.525 12.3529L22.9257 15.9493C23.4958 16.2711 23.6892 16.9756 23.3173 17.5306Z" fill="#C5C8CF"/>
</svg>
